<svg width="4032" height="809" viewBox="0 0 4032 809" fill="none" xmlns="http://www.w3.org/2000/svg">
<path d="M512.5 0H412.5L446.5 234L304.5 238.5L287 125.5H189L234.5 442L334 438L319 336.5L692.5 326.5L703.5 226.5L545.5 231L512.5 0Z" fill="#D1AE6C"/>
<path d="M481 473.5L108 484.5L96.5 583.5L254.5 579.5L288.5 809H388.5L353.5 576.5L495.5 572L512.5 686H613L565.5 367L466.5 370.5L481 473.5Z" fill="#D1AE6C"/>
<path d="M800 464L620.5 469.5L635.5 567.5L789.5 563L800 464Z" fill="#D1AE6C"/>
<path d="M0 346.5L179.5 341L164.5 243L10.5 247.5L0 346.5Z" fill="#D1AE6C"/>
<path d="M1264.16 35.2H1294.97V458H1264.16V35.2ZM981.492 458H950.688V35.2H981.492V458ZM1267.79 256.868H977.868V229.688H1267.79V256.868Z" fill="black"/>
<path d="M1371.95 458L1566.44 35.2H1597.24L1791.73 458H1758.51L1574.89 54.528H1588.18L1405.17 458H1371.95ZM1443.22 339.012L1453.49 313.04H1706.57L1716.83 339.012H1443.22Z" fill="black"/>
<path d="M1868.48 458V35.2H1899.29V458H1868.48Z" fill="black"/>
<path d="M2046.62 458V35.2H2198.22C2233.66 35.2 2264.06 40.8373 2289.43 52.112C2314.79 63.3866 2334.32 79.6946 2348.01 101.036C2361.7 121.975 2368.55 147.544 2368.55 177.744C2368.55 207.139 2361.7 232.507 2348.01 253.848C2334.32 274.787 2314.79 291.095 2289.43 302.772C2264.06 314.047 2233.66 319.684 2198.22 319.684H2063.53L2077.42 305.188V458H2046.62ZM2340.16 458L2230.23 304.584H2265.27L2375.19 458H2340.16ZM2077.42 307L2063.53 292.504H2198.22C2243.72 292.504 2278.15 282.437 2301.51 262.304C2325.26 242.171 2337.14 213.984 2337.14 177.744C2337.14 141.101 2325.26 112.915 2301.51 93.184C2278.15 73.0506 2243.72 62.984 2198.22 62.984H2063.53L2077.42 47.884V307Z" fill="black"/>
<path d="M1055.35 594.2H1065.25V730H1055.35V594.2ZM964.562 730H954.668V594.2H964.562V730ZM1056.52 665.398H963.398V656.668H1056.52V665.398Z" fill="black"/>
<path d="M1148.17 730L1210.64 594.2H1220.54L1283 730H1272.33L1213.36 600.408H1217.63L1158.84 730H1148.17ZM1171.07 691.782L1174.36 683.44H1255.65L1258.95 691.782H1171.07Z" fill="black"/>
<path d="M1365.86 730V594.2H1375.75V730H1365.86Z" fill="black"/>
<path d="M1481.27 730V594.2H1529.97C1541.35 594.2 1551.11 596.011 1559.26 599.632C1567.41 603.253 1573.68 608.491 1578.08 615.346C1582.48 622.071 1584.67 630.284 1584.67 639.984C1584.67 649.425 1582.48 657.573 1578.08 664.428C1573.68 671.153 1567.41 676.391 1559.26 680.142C1551.11 683.763 1541.35 685.574 1529.97 685.574H1486.7L1491.17 680.918V730H1481.27ZM1575.56 730L1540.25 680.724H1551.5L1586.81 730H1575.56ZM1491.17 681.5L1486.7 676.844H1529.97C1544.58 676.844 1555.64 673.611 1563.14 667.144C1570.77 660.677 1574.59 651.624 1574.59 639.984C1574.59 628.215 1570.77 619.161 1563.14 612.824C1555.64 606.357 1544.58 603.124 1529.97 603.124H1486.7L1491.17 598.274V681.5Z" fill="black"/>
<path d="M1822.82 730.97C1812.73 730.97 1803.16 729.289 1794.11 725.926C1785.19 722.434 1778.27 717.972 1773.35 712.54L1777.81 705.168C1782.47 709.953 1788.81 714.027 1796.83 717.39C1804.97 720.623 1813.57 722.24 1822.63 722.24C1831.68 722.24 1839.05 721.076 1844.74 718.748C1850.56 716.291 1854.83 713.057 1857.55 709.048C1860.39 705.039 1861.82 700.577 1861.82 695.662C1861.82 689.842 1860.26 685.186 1857.16 681.694C1854.06 678.202 1849.98 675.421 1844.94 673.352C1839.89 671.283 1834.4 669.537 1828.45 668.114C1822.5 666.691 1816.48 665.204 1810.41 663.652C1804.33 661.971 1798.77 659.837 1793.72 657.25C1788.68 654.663 1784.6 651.171 1781.5 646.774C1778.52 642.247 1777.04 636.427 1777.04 629.314C1777.04 622.847 1778.72 616.898 1782.08 611.466C1785.44 606.034 1790.68 601.637 1797.8 598.274C1804.91 594.911 1814.03 593.23 1825.15 593.23C1832.65 593.23 1840.02 594.329 1847.27 596.528C1854.64 598.727 1860.91 601.701 1866.08 605.452L1862.4 613.406C1856.71 609.526 1850.56 606.681 1843.97 604.87C1837.5 602.93 1831.23 601.96 1825.15 601.96C1816.48 601.96 1809.31 603.189 1803.61 605.646C1797.92 608.103 1793.72 611.401 1791.01 615.54C1788.29 619.549 1786.93 624.076 1786.93 629.12C1786.93 634.94 1788.42 639.596 1791.39 643.088C1794.5 646.58 1798.57 649.361 1803.61 651.43C1808.66 653.499 1814.22 655.245 1820.3 656.668C1826.38 658.091 1832.39 659.643 1838.34 661.324C1844.29 662.876 1849.79 664.945 1854.83 667.532C1859.88 670.119 1863.95 673.611 1867.05 678.008C1870.16 682.405 1871.71 688.096 1871.71 695.08C1871.71 701.417 1869.96 707.367 1866.47 712.928C1862.98 718.36 1857.61 722.757 1850.37 726.12C1843.26 729.353 1834.07 730.97 1822.82 730.97Z" fill="black"/>
<path d="M1987.65 730V603.124H1938.76V594.2H2046.43V603.124H1997.54V730H1987.65Z" fill="black"/>
<path d="M2160.61 730V680.724L2162.93 687.126L2105.9 594.2H2116.76L2168.56 678.59H2163.13L2214.93 594.2H2225.21L2168.17 687.126L2170.5 680.724V730H2160.61Z" fill="black"/>
<path d="M2304.82 730V594.2H2314.72V721.076H2392.9V730H2304.82Z" fill="black"/>
<path d="M2476.51 730V594.2H2486.4V730H2476.51Z" fill="black"/>
<path d="M2627.62 730.97C2617.53 730.97 2607.96 729.289 2598.91 725.926C2589.98 722.434 2583.06 717.972 2578.15 712.54L2582.61 705.168C2587.27 709.953 2593.6 714.027 2601.62 717.39C2609.77 720.623 2618.37 722.24 2627.42 722.24C2636.48 722.24 2643.85 721.076 2649.54 718.748C2655.36 716.291 2659.63 713.057 2662.34 709.048C2665.19 705.039 2666.61 700.577 2666.61 695.662C2666.61 689.842 2665.06 685.186 2661.96 681.694C2658.85 678.202 2654.78 675.421 2649.73 673.352C2644.69 671.283 2639.19 669.537 2633.24 668.114C2627.29 666.691 2621.28 665.204 2615.2 663.652C2609.12 661.971 2603.56 659.837 2598.52 657.25C2593.47 654.663 2589.4 651.171 2586.3 646.774C2583.32 642.247 2581.83 636.427 2581.83 629.314C2581.83 622.847 2583.52 616.898 2586.88 611.466C2590.24 606.034 2595.48 601.637 2602.59 598.274C2609.71 594.911 2618.82 593.23 2629.95 593.23C2637.45 593.23 2644.82 594.329 2652.06 596.528C2659.43 598.727 2665.71 601.701 2670.88 605.452L2667.19 613.406C2661.5 609.526 2655.36 606.681 2648.76 604.87C2642.3 602.93 2636.02 601.96 2629.95 601.96C2621.28 601.96 2614.1 603.189 2608.41 605.646C2602.72 608.103 2598.52 611.401 2595.8 615.54C2593.09 619.549 2591.73 624.076 2591.73 629.12C2591.73 634.94 2593.22 639.596 2596.19 643.088C2599.29 646.58 2603.37 649.361 2608.41 651.43C2613.46 653.499 2619.02 655.245 2625.1 656.668C2631.17 658.091 2637.19 659.643 2643.14 661.324C2649.09 662.876 2654.58 664.945 2659.63 667.532C2664.67 670.119 2668.75 673.611 2671.85 678.008C2674.95 682.405 2676.51 688.096 2676.51 695.08C2676.51 701.417 2674.76 707.367 2671.27 712.928C2667.78 718.36 2662.41 722.757 2655.17 726.12C2648.05 729.353 2638.87 730.97 2627.62 730.97Z" fill="black"/>
<path d="M2792.44 730V603.124H2743.55V594.2H2851.22V603.124H2802.34V730H2792.44Z" fill="black"/>
<path d="M2476.86 458V35.2H2513.7L2706.98 364.984H2687.65L2879.12 35.2H2915.96V458H2873.08V102.244H2883.35L2706.98 404.244H2685.84L2508.26 102.244H2519.74V458H2476.86Z" fill="black"/>
<path d="M2986.08 458L3179.36 35.2H3223.45L3416.73 458H3369.62L3192.04 61.172H3210.16L3032.58 458H2986.08ZM3062.18 345.052L3075.47 308.812H3321.3L3334.58 345.052H3062.18Z" fill="black"/>
<path d="M3486.67 458V35.2H3531.36V458H3486.67Z" fill="black"/>
<path d="M3601.28 458L3794.56 35.2H3838.65L4031.93 458H3984.82L3807.25 61.172H3825.37L3647.79 458H3601.28ZM3677.39 345.052L3690.67 308.812H3936.5L3949.79 345.052H3677.39Z" fill="black"/>
</svg>
